<svg xmlns="http://www.w3.org/2000/svg" viewBox="0 0 500 500"><g id="freepik--Floor--inject-52"><ellipse id="freepik--floor--inject-52" cx="252.29" cy="357.49" rx="233.93" ry="135.06" style="fill:#fafafa"></ellipse></g><g id="freepik--Shadows--inject-52"><path id="freepik--Shadow--inject-52" d="M78.51,453.88a11.94,11.94,0,0,1-1.91,4.43,21,21,0,0,1-7.16,6.36c-12.39,7.15-32.48,7.15-44.87,0a21.11,21.11,0,0,1-7.16-6.36,12.05,12.05,0,0,1-1.89-4.43h0c-1.11-5.38,1.92-11,9.06-15.11,12.39-7.16,32.48-7.16,44.87,0C76.58,442.9,79.61,448.5,78.51,453.88Z" style="fill:#ebebeb"></path><path id="freepik--shadow--inject-52" d="M469.73,436.9a25.59,25.59,0,0,1-4.05,9.42c-3.26,4.92-8.34,9.53-15.2,13.5-26.3,15.18-69,15.18-95.25,0-6.85-4-11.93-8.58-15.2-13.5a25.68,25.68,0,0,1-4-9.42h0c-2.35-11.41,4.08-23.31,19.24-32.06,26.3-15.2,68.95-15.2,95.25,0C465.64,413.59,472.07,425.49,469.73,436.9Z" style="fill:#ebebeb"></path><path id="freepik--shadow--inject-52" d="M101,444.28,14.1,394.61c-1.27-.73-1.27-1.91,0-2.64L290.85,232.19a5.06,5.06,0,0,1,4.58,0l86.91,49.67a1.4,1.4,0,0,1,0,2.65L105.59,444.28A5.06,5.06,0,0,1,101,444.28Z" style="fill:#ebebeb"></path><path id="freepik--shadow--inject-52" d="M355.93,383.31l-11.83-6.83a9.08,9.08,0,0,0-8.66.21l-61.08,39.39c-11.92-7-28.39-11.26-46.58-11.26-36.38,0-65.88,17.22-65.88,38.46s29.5,38.47,65.88,38.47,65.89-17.22,65.89-38.47c0-6.79-3-13.16-8.32-18.7l70.47-36.41C358.31,386.89,358.36,384.71,355.93,383.31Z" style="fill:#ebebeb"></path></g><g id="freepik--magnifying-glass--inject-52"><g id="freepik--Glass--inject-52"><path d="M284.91,417.2h0a3.46,3.46,0,0,1-3.47-.34,10.8,10.8,0,0,1-4.92-8.48A3.42,3.42,0,0,1,278,405.2h0L339,366.59h0c1.25-.84,3-.79,5,.35a15.15,15.15,0,0,1,6.89,11.86c0,2.3-.84,3.87-2.19,4.54h0Z" style="fill:#455a64"></path><path d="M276.52,408.38c0-3.13,2.18-4.41,4.9-2.85a10.86,10.86,0,0,1,4.92,8.49c0,3.13-2.19,4.4-4.9,2.84A10.8,10.8,0,0,1,276.52,408.38Z" style="fill:#37474f"></path><path d="M269.3,421.68a6.54,6.54,0,0,1-3-5.13,2,2,0,0,1,.86-1.92h0l12.13-7.06h0a2.09,2.09,0,0,1,2.1.2,6.57,6.57,0,0,1,3,5.13,2.09,2.09,0,0,1-.87,1.93l-12.13,7.05h0A2.07,2.07,0,0,1,269.3,421.68Z" style="fill:#9E30F4"></path><path d="M269.3,421.68a6.54,6.54,0,0,1-3-5.13,2,2,0,0,1,.86-1.92h0l12.13-7.06h0a2.09,2.09,0,0,1,2.1.2,6.57,6.57,0,0,1,3,5.13,2.09,2.09,0,0,1-.87,1.93l-12.13,7.05h0A2.07,2.07,0,0,1,269.3,421.68Z" style="opacity:0.2"></path><path d="M275,411.91q-.66-.51-1.38-1l-6.39,3.71a36.72,36.72,0,0,1,7.11,5.58l5.86-3.4-.48-.56A38.24,38.24,0,0,0,275,411.91Z" style="opacity:0.2"></path><path d="M283.72,407.53l62.81-38.59a11.74,11.74,0,0,0-2.51-2c-2-1.14-3.77-1.19-5-.34h0l-61,38.6a3.44,3.44,0,0,1,3.47.34A9.14,9.14,0,0,1,283.72,407.53Z" style="opacity:0.15"></path><path d="M283,432.61c0-.25,0-.45,0-.59s0-.47,0-.71c0-.58-.09-1.15-.17-1.72,0-.21-.07-.41-.11-.63a19.65,19.65,0,0,0-.58-2.35l-.21-.64c-.21-.57-.43-1.15-.68-1.71-.09-.2-.18-.39-.28-.59l-.27-.54c-.13-.25-.26-.5-.41-.75s-.28-.5-.44-.75l-.47-.73a26,26,0,0,0-2.84-3.61,34.33,34.33,0,0,0-4.48-4.09,48.43,48.43,0,0,0-5.64-3.75c-22-12.58-57.58-12.58-79.36,0-.55.32-1.08.64-1.6,1a43.7,43.7,0,0,0-5.53,4.06c-.49.44-1,.88-1.43,1.33a31.42,31.42,0,0,0-3.16,3.58c-.17.22-.33.45-.49.68s-.42.61-.61.92-.53.85-.77,1.28-.51,1-.74,1.44c-.1.21-.2.41-.28.62s-.25.58-.36.88-.17.44-.24.66a19.84,19.84,0,0,0-1,4.69c0,.17,0,.34,0,.51,0,.37,0,.74,0,1.09,0,1.37,0,7.54,0,8.68,0,8.32,5.48,16.67,16.52,23,21.91,12.65,57.45,12.65,79.36,0,11.07-6.38,16.52-14.76,16.37-23.11C283,439.81,283.06,434.63,283,432.61Zm-92.83-17.69c9.6-5.54,22.54-8.59,36.43-8.59s26.94,3.05,36.66,8.6c8.65,4.93,13.41,11.11,13.43,17.4s-4.68,12.41-13.22,17.34c-9.65,5.58-22.62,8.64-36.53,8.64s-26.86-3.06-36.52-8.64c-8.61-5-13.36-11.19-13.36-17.51S181.77,419.8,190.21,414.92Z" style="fill:#9E30F4"></path><path d="M283,432.61c0-.25,0-.45,0-.59s0-.47,0-.71c0-.58-.09-1.15-.17-1.72,0-.21-.07-.41-.11-.63a19.65,19.65,0,0,0-.58-2.35l-.21-.64c-.21-.57-.43-1.15-.68-1.71-.09-.2-.18-.39-.28-.59l-.27-.54c-.13-.25-.26-.5-.41-.75s-.28-.5-.44-.75l-.47-.73a26,26,0,0,0-2.84-3.61,34.33,34.33,0,0,0-4.48-4.09,48.43,48.43,0,0,0-5.64-3.75c-22-12.58-57.58-12.58-79.36,0-.55.32-1.08.64-1.6,1a43.7,43.7,0,0,0-5.53,4.06c-.49.44-1,.88-1.43,1.33a31.42,31.42,0,0,0-3.16,3.58c-.17.22-.33.45-.49.68s-.42.61-.61.92-.53.85-.77,1.28-.51,1-.74,1.44c-.1.21-.2.41-.28.62s-.25.58-.36.88-.17.44-.24.66a19.84,19.84,0,0,0-1,4.69c0,.17,0,.34,0,.51,0,.37,0,.74,0,1.09,0,1.37,0,7.54,0,8.68,0,8.32,5.48,16.67,16.52,23,21.91,12.65,57.45,12.65,79.36,0,11.07-6.38,16.52-14.76,16.37-23.11C283,439.81,283.06,434.63,283,432.61Zm-92.83-17.69c9.6-5.54,22.54-8.59,36.43-8.59s26.94,3.05,36.66,8.6c8.65,4.93,13.41,11.11,13.43,17.4s-4.68,12.41-13.22,17.34c-9.65,5.58-22.62,8.64-36.53,8.64s-26.86-3.06-36.52-8.64c-8.61-5-13.36-11.19-13.36-17.51S181.77,419.8,190.21,414.92Z" style="fill:#fff;opacity:0.25"></path><path d="M283,432.61h-6.31c0,6.25-4.68,12.13-13.22,17.06-9.36,5.41-21.85,8.45-35.29,8.63v15.05c13.95-.17,27.81-3.32,38.45-9.47,11.07-6.38,16.52-14.76,16.37-23.11C283,439.81,283.06,434.63,283,432.61Z" style="fill:#9E30F4"></path><path d="M283,432c0-.23,0-.47,0-.71,0-.58-.09-1.15-.17-1.72,0-.21-.07-.41-.11-.63a19.65,19.65,0,0,0-.58-2.35l-.21-.64c-.21-.57-.43-1.15-.68-1.71-.09-.2-.18-.39-.28-.59l-.27-.54c-.13-.25-.26-.5-.41-.75s-.28-.5-.44-.75l-.47-.73a26,26,0,0,0-2.84-3.61,35.74,35.74,0,0,0-4.48-4.09,48.43,48.43,0,0,0-5.64-3.75c-22-12.58-57.58-12.58-79.36,0-.55.32-1.08.64-1.6,1a43.7,43.7,0,0,0-5.53,4.06c-.49.44-1,.88-1.43,1.33a31.42,31.42,0,0,0-3.16,3.58c-.17.22-.33.45-.49.68s-.42.61-.61.92-.53.85-.77,1.28-.51,1-.74,1.44c-.1.21-.2.41-.28.62s-.25.58-.36.88-.17.44-.24.66a19.84,19.84,0,0,0-1,4.69c0,.17,0,.34,0,.51,0,.37,0,.74,0,1.09,0,8.31,5.51,16.63,16.52,23,21.91,12.65,57.45,12.65,79.36,0,10.81-6.24,16.27-14.37,16.37-22.53C283.05,432.36,283,432.16,283,432Zm-19.53,17.65c-9.65,5.58-22.62,8.64-36.53,8.64s-26.86-3.06-36.52-8.64c-8.61-5-13.36-11.19-13.36-17.51s4.67-12.36,13.11-17.24c9.6-5.54,22.54-8.59,36.43-8.59s26.94,3.05,36.66,8.6c8.65,4.93,13.41,11.11,13.43,17.4S272.05,444.74,263.51,449.67Z" style="fill:#9E30F4"></path><path d="M283,432c0-.23,0-.47,0-.71,0-.58-.09-1.15-.17-1.72,0-.21-.07-.41-.11-.63a19.65,19.65,0,0,0-.58-2.35l-.21-.64c-.21-.57-.43-1.15-.68-1.71-.09-.2-.18-.39-.28-.59l-.27-.54c-.13-.25-.26-.5-.41-.75s-.28-.5-.44-.75l-.47-.73a26,26,0,0,0-2.84-3.61,35.74,35.74,0,0,0-4.48-4.09,48.43,48.43,0,0,0-5.64-3.75c-22-12.58-57.58-12.58-79.36,0-.55.32-1.08.64-1.6,1a43.7,43.7,0,0,0-5.53,4.06c-.49.44-1,.88-1.43,1.33a31.42,31.42,0,0,0-3.16,3.58c-.17.22-.33.45-.49.68s-.42.61-.61.92-.53.85-.77,1.28-.51,1-.74,1.44c-.1.21-.2.41-.28.62s-.25.58-.36.88-.17.44-.24.66a19.84,19.84,0,0,0-1,4.69c0,.17,0,.34,0,.51,0,.37,0,.74,0,1.09,0,8.31,5.51,16.63,16.52,23,21.91,12.65,57.45,12.65,79.36,0,10.81-6.24,16.27-14.37,16.37-22.53C283.05,432.36,283,432.16,283,432Zm-19.53,17.65c-9.65,5.58-22.62,8.64-36.53,8.64s-26.86-3.06-36.52-8.64c-8.61-5-13.36-11.19-13.36-17.51s4.67-12.36,13.11-17.24c9.6-5.54,22.54-8.59,36.43-8.59s26.94,3.05,36.66,8.6c8.65,4.93,13.41,11.11,13.43,17.4S272.05,444.74,263.51,449.67Z" style="fill:#fff;opacity:0.45"></path><path d="M276.73,432.33a12.77,12.77,0,0,1-.4,3.18c-1.31-5.19-5.82-10.16-13-14.26-9.72-5.55-22.74-8.6-36.66-8.6s-26.83,3.05-36.43,8.59c-7,4-11.42,8.95-12.71,14.07a12.48,12.48,0,0,1-.4-3.15c0-6.24,4.67-12.36,13.11-17.24,9.6-5.54,22.54-8.59,36.43-8.59s26.94,3.05,36.66,8.6C272,419.86,276.71,426,276.73,432.33Z" style="fill:#9E30F4"></path><path d="M276.73,432.33a12.77,12.77,0,0,1-.4,3.18c-1.31-5.19-5.82-10.16-13-14.26-9.72-5.55-22.74-8.6-36.66-8.6s-26.83,3.05-36.43,8.59c-7,4-11.42,8.95-12.71,14.07a12.48,12.48,0,0,1-.4-3.15c0-6.24,4.67-12.36,13.11-17.24,9.6-5.54,22.54-8.59,36.43-8.59s26.94,3.05,36.66,8.6C272,419.86,276.71,426,276.73,432.33Z" style="fill:#fff;opacity:0.25"></path><path d="M276.63,434c-.74,5.67-5.33,11.19-13.12,15.69-9.65,5.58-22.62,8.64-36.53,8.64s-26.86-3.06-36.52-8.64c-7.89-4.56-12.53-10.15-13.26-15.91.73-5.69,5.28-11.19,13-15.65,9.6-5.54,22.54-8.59,36.43-8.59s26.94,3.05,36.66,8.6C271.24,422.64,275.91,428.22,276.63,434Z" style="fill:#fff;opacity:0.55"></path></g></g><g id="freepik--Device--inject-52"><g id="freepik--device--inject-52"><g id="freepik--Case--inject-52"><path d="M292.06,243.64l5-2.91s26.71-87.16,29.2-92.21-2-7.63-6.82-4.85L68.67,288.29c-4.81,2.77-6.33,6.59-10.61,14.91s-28.4,88.4-28.4,88.4a4.45,4.45,0,0,0,2.15,4.7l57.1,33.07L351.24,277.92Z" style="fill:#9E30F4"></path><path d="M292.06,243.64l5-2.91s26.71-87.16,29.2-92.21-2-7.63-6.82-4.85L68.67,288.29c-4.81,2.77-6.33,6.59-10.61,14.91s-28.4,88.4-28.4,88.4a4.45,4.45,0,0,0,2.15,4.7l57.1,33.07L351.24,277.92Z" style="fill:#fff;opacity:0.35000000000000003"></path><path d="M61.21,305.21C58,311.51,32.84,393.3,32.84,393.3L300.26,238.9s26.53-83.13,29.18-88.37-2-7.62-6.82-4.85L71.81,290.3C67,293.08,64.47,298.91,61.21,305.21Z" style="fill:#9E30F4"></path><path d="M61.21,305.21C58,311.51,32.84,393.3,32.84,393.3L300.26,238.9s26.53-83.13,29.18-88.37-2-7.62-6.82-4.85L71.81,290.3C67,293.08,64.47,298.91,61.21,305.21Z" style="opacity:0.25"></path><polygon points="295.17 241.85 32.84 393.3 90.93 426.85 353.26 275.4 295.17 241.85" style="fill:#9E30F4"></polygon><polygon points="295.17 241.85 32.84 393.3 90.93 426.85 353.26 275.4 295.17 241.85" style="opacity:0.15"></polygon><path d="M313.44,50.84,60.7,196.49c-5.55,3.2-7.28,8.38-6.3,15.21L84.31,421.6c1,6.82,6.41,10.82,12,7.62l250.5-144.57c5.55-3.2,9.25-11.33,8.27-18.15L325.24,57.4C324.26,50.58,319,47.64,313.44,50.84Z" style="fill:#9E30F4"></path><path d="M313.44,50.84,60.7,196.49c-5.55,3.2-7.28,8.38-6.3,15.21L84.31,421.6c1,6.82,6.41,10.82,12,7.62l250.5-144.57c5.55-3.2,9.25-11.33,8.27-18.15L325.24,57.4C324.26,50.58,319,47.64,313.44,50.84Z" style="fill:#fff;opacity:0.35000000000000003"></path></g><g id="freepik--Tablet--inject-52"><path d="M330.47,55.3a7.8,7.8,0,0,0-6.81.84L73.15,200.72a16.85,16.85,0,0,0-6.4,7.33l-8.08-3.42c1.77-3.88,4.88-5.3,7.53-6.85L316.69,53.21a7.69,7.69,0,0,1,7.08-.73h0Z" style="fill:#455a64"></path><path d="M92.43,431.33v0c-2.48-1-4.33-3.59-4.86-7.34l-29.64-208c-.61-4.26-.81-8.09.74-11.31l8.09,3.43c-.22.45-.41.9-.61,1.37s-.28.75-.39,1.13a.55.55,0,0,0-.05.17,10.28,10.28,0,0,0-.38,1.31,13.43,13.43,0,0,0-.3,1.37,7.48,7.48,0,0,0-.14,1,15.72,15.72,0,0,0,0,4.44L94.68,428c.54,3.79,2.42,6.39,4.93,7.39Z" style="fill:#263238"></path><path d="M323.65,56.15,70.91,201.81c-5.54,3.2-7.27,8.38-6.29,15.2L94.67,428c1,6.82,6.27,9.76,11.81,6.56L357,290c5.54-3.2,9.24-11.33,8.27-18.16L335.46,62.72C334.48,55.89,329.19,53,323.65,56.15Z" style="fill:#37474f"></path><path d="M341.6,289,118,418c-2.87,1.66-5.61.13-6.12-3.4L82.39,207.71c-.51-3.54,1.41-7.75,4.28-9.41l223.6-129c2.87-1.66,5.61-.14,6.12,3.4L345.88,279.6C346.39,283.13,344.47,287.35,341.6,289Z" style="fill:#263238"></path><path d="M82.39,207.71l29.49,206.93c0,.14.05.27.08.4l223.6-129c2.87-1.66,4.79-5.87,4.28-9.41L310.27,69.27l-223.6,129C83.8,200,81.88,204.17,82.39,207.71Z" style="fill:#fafafa"></path><path d="M93.79,335.84a5,5,0,0,1-2.15,4.73c-1.45.83-2.82.07-3.08-1.71a5,5,0,0,1,2.16-4.73C92.16,333.29,93.54,334.06,93.79,335.84Z" style="fill:#263238"></path><path d="M84,287.39h0a3.87,3.87,0,0,0-1.67,3.67l4.89,34.07c.2,1.39,1.27,2,2.39,1.34h0a3.9,3.9,0,0,0,1.67-3.68l-4.88-34.07C86.21,287.33,85.14,286.74,84,287.39Z" style="fill:#263238"></path></g><g id="freepik--Map--inject-52"><path d="M191.93,184.7v0l21.55-16.62-4.79-33.38L148.5,169.43l32,17.91Zm129-3.62-9-63-44.07,22.16,9,63ZM204.76,274.42l15-12.84a26.75,26.75,0,0,1,5.71-10L214.3,173.89l-21.54,16.64v0l-11.39,2.62,12,83.61ZM311,112.22l-4.85-33.83-43.64,25.22L267,134.4Zm-73.16,36.52v0l22-11.06-4.31-30-38.31,22.13,4.5,31.44Zm90.53,84.8-6.68-46.69L277.62,209l2.5,17.52ZM109,231.21l22.8-5.27-6.19-43.28L87.23,204.81l5.3,37Zm78.6,46.66-11.94-83.38L138.53,175.2l-6.34,3.66,15.36,107.35ZM113.17,260.4l22.8-5.27-3.36-23.34L109.81,237,93.38,247.64,96.7,271Zm41.22,123.39-5-35-4.29,40.34ZM199.06,358l-6.46-45.1-36.14,35.48L161,380ZM335,279.52l-5.74-40.15-48.26-7-14.73,54.35,4.29,30Zm-225.72,79L116,405.92l23.58-13.6,7.16-61.78-5.53-38.66-22.89,4.68-9.9,5.25a34.56,34.56,0,0,1-6,9.51l6,41.4L124.86,342l.82,5.84Zm8.25-67.74,22.91-4.7L136.79,261,114,266.23,97.55,276.82l.31,2.23c6.46-1.43,11.66,2.06,12.72,9.41a22.06,22.06,0,0,1-.09,6.22Zm74.27,16.24-3.35-23.35-40,8.28,7.24,50.55Zm41.13-35.7c4.56-2.64,7.69-8.69,7-13.51s-5-6.63-9.54-4-7.71,8.68-7,13.52S228.33,274,232.9,271.35Zm29.68,50L258,289l5.89-23.95-11-2.85-9.59,7.87L238,274.84l8,56Zm-25.11,14.5-8.19-57.29c-5.25.59-9.49-2.58-10.36-8.61a16.33,16.33,0,0,1-.15-2.34l-13.25,12.11-11.39,2.68,10.37,72.49Zm10.25-118.36v0l22-11-9-62.92-22,11.07v0L222.59,167l9,62.91Zm5.44,38v0l12.27,3.21,7.43-30.35-2.3-16-22,11.06v0l-16.12,12.46L234,246.64c5.24-.58,9.43,2.62,10.3,8.67a18.85,18.85,0,0,1-.52,7.38Z" style="fill:#f0f0f0"></path><path d="M257.9,267.93l-3.38-.87L247,273.22l-3.7,3.34L250,323.21l7.22-4.17-4.37-30.52Zm13.46,19.34,3.12,21.8,55.13-31.83L324.71,243l-39.8-5.78ZM247.5,249.54l14,3.69,6.24-25.42-1.2-8.35-14.71,7.39-14.08,10.88.71,5a14.51,14.51,0,0,1,4.64,2A14,14,0,0,1,247.5,249.54Zm37.15-26.67,38,5.51L317.7,194,283,211.47ZM132.55,266.5l-16.2,3.74-9,5.83c.32.16.63.33.94.51a15.12,15.12,0,0,1,7,10.15l6.53-1.26,13-2.72Zm87.53,13.93a13.82,13.82,0,0,1-3.88-4l-7.73,7.09-8.83,2.08,8.81,61.55,23.66-13.66-7.31-51A14.46,14.46,0,0,1,220.08,280.43ZM120.4,300.7l-7.75,4.12c-.22.48-.45.95-.69,1.42a37.88,37.88,0,0,1-4.23,6.49l4.57,31.86,16.43-10.68L131,350,114.6,360.68,120,398.27l14.81-8.55,6.89-59.46-4.72-33Zm63.75-11.61-30.24,6.26,5.28,36.87,27.3-26.8ZM280.81,196l34.68-17.38-7.64-53.39-34.68,17.45ZM201.94,270.5l13.21-11.34a30.17,30.17,0,0,1,1.64-3.81,31,31,0,0,1,3.38-5.21l-9.64-67.31-15.09,11.64-8.57,2L197.6,271.4Zm-75.66-47.83-4.64-32.34-29,16.76,3.81,26.59,9.81-6.38ZM305.63,109.78l-3.39-23.72L267.9,105.88,271,127.21Zm-70.87,35.34,19.72-9.91-2.85-19.93-29,16.75,2.89,20.23Zm-26.62,21-3.4-23.79-47.12,27.21,23.44,13.11,8.09-1.87ZM182.06,274.5,171,196.92l-32-16.61-1.43.83,14.27,99.66Z" style="fill:#e0e0e0"></path><path d="M193.7,355.71,189,323.2,161.73,350l3.2,22.34Zm38.61-88.44a7.85,7.85,0,0,0,3.78-7.23c-.39-2.61-2.67-3.56-5.13-2.16a7.93,7.93,0,0,0-3.76,7.27C227.57,267.73,229.87,268.7,232.31,267.27Zm12.3-53.43L264.32,204l-7.62-53.27L242,158.07,227.9,169,235.36,221Zm-134.7,43,20.54-5-2.07-14.55-16.2,3.74-13.45,8.73,1.87,13.07Z" style="fill:#9E30F4"></path><path d="M193.7,355.71,189,323.2,161.73,350l3.2,22.34Zm38.61-88.44a7.85,7.85,0,0,0,3.78-7.23c-.39-2.61-2.67-3.56-5.13-2.16a7.93,7.93,0,0,0-3.76,7.27C227.57,267.73,229.87,268.7,232.31,267.27Zm12.3-53.43L264.32,204l-7.62-53.27L242,158.07,227.9,169,235.36,221Zm-134.7,43,20.54-5-2.07-14.55-16.2,3.74-13.45,8.73,1.87,13.07Z" style="fill:#fff;opacity:0.6000000000000001"></path></g></g><g id="freepik--Pins--inject-52"><path d="M126.79,200.53c0-5.31-3.5-7.6-7.81-5.11s-7.81,8.81-7.81,14.12v1.21c0,4.09,4.63,8.83,6.76,10.8a1.06,1.06,0,0,0,1.66-.31c1.84-3.77,7.2-15.11,7.2-19.51ZM119,209.22c-2.29,1.33-4.15.25-4.15-2.39a9.17,9.17,0,0,1,4.15-7.18c2.29-1.32,4.14-.25,4.14,2.4A9.14,9.14,0,0,1,119,209.22Z" style="fill:#9E30F4"></path><path d="M199.64,183.92c0-5.31-3.5-7.59-7.81-5.1S184,187.63,184,192.94v1.21c0,4.08,4.63,8.83,6.76,10.79a1,1,0,0,0,1.66-.31c1.84-3.76,7.2-15.1,7.2-19.5Zm-7.81,8.7c-2.29,1.32-4.15.25-4.15-2.39a9.15,9.15,0,0,1,4.15-7.18c2.29-1.32,4.14-.25,4.14,2.39A9.14,9.14,0,0,1,191.83,192.62Z" style="fill:#9E30F4"></path><path d="M220.17,201.13c0-5.31-3.5-7.6-7.81-5.11s-7.81,8.81-7.81,14.12v1.21c0,4.09,4.63,8.83,6.76,10.8a1.05,1.05,0,0,0,1.66-.31c1.84-3.77,7.2-15.11,7.2-19.51Zm-7.81,8.69c-2.29,1.33-4.14.25-4.14-2.39a9.16,9.16,0,0,1,4.14-7.18c2.29-1.32,4.14-.25,4.14,2.4A9.14,9.14,0,0,1,212.36,209.82Z" style="fill:#9E30F4"></path><path d="M145.37,308.12c0-5.31-3.5-7.59-7.81-5.1s-7.81,8.81-7.81,14.12v1.21c0,4.09,4.63,8.83,6.76,10.79a1,1,0,0,0,1.66-.31c1.84-3.76,7.2-15.1,7.2-19.5Zm-7.81,8.7c-2.29,1.32-4.15.25-4.15-2.39a9.17,9.17,0,0,1,4.15-7.18c2.28-1.32,4.14-.25,4.14,2.39A9.17,9.17,0,0,1,137.56,316.82Z" style="fill:#9E30F4"></path><path d="M285.43,266c0-5.31-3.5-7.59-7.81-5.1s-7.81,8.81-7.81,14.11v1.21c0,4.09,4.63,8.83,6.76,10.8a1.05,1.05,0,0,0,1.66-.31c1.84-3.77,7.2-15.11,7.2-19.5Zm-7.81,8.7c-2.29,1.32-4.14.25-4.14-2.4a9.14,9.14,0,0,1,4.14-7.17c2.29-1.33,4.14-.25,4.14,2.39A9.16,9.16,0,0,1,277.62,274.68Z" style="fill:#9E30F4"></path><path d="M291.66,169.35c0-5.31-3.49-7.59-7.81-5.1s-7.8,8.81-7.8,14.12v1.21c0,4.08,4.63,8.83,6.76,10.79a1,1,0,0,0,1.66-.31c1.84-3.76,7.19-15.1,7.19-19.5Zm-7.81,8.7c-2.29,1.32-4.14.25-4.14-2.39a9.14,9.14,0,0,1,4.14-7.18c2.29-1.32,4.15-.25,4.15,2.39A9.17,9.17,0,0,1,283.85,178.05Z" style="fill:#9E30F4"></path></g></g><g id="freepik--speech-bubble--inject-52"><g id="freepik--speech-bubble--inject-52"><g id="freepik--speech-bubble--inject-52"><path d="M464.68,67.92c-.94,7.68-4.62,12.06-9.3,14.3l-4.48-2.59a11.43,11.43,0,0,0,2.2-5,15.29,15.29,0,0,0,.11-5.23l7-4C459.91,67.76,464.68,67.92,464.68,67.92Z" style="fill:#9E30F4"></path><path d="M464.68,67.92c-.94,7.68-4.62,12.06-9.3,14.3l-4.48-2.59a11.43,11.43,0,0,0,2.2-5,15.29,15.29,0,0,0,.11-5.23l7-4C459.91,67.76,464.68,67.92,464.68,67.92Z" style="opacity:0.2"></path><path d="M475.32,20.05V59.3a4.65,4.65,0,0,1-2.1,3.64l-8.54,5c-.94,7.68-4.62,12.06-9.3,14.3C458,79,458.08,74.3,457.69,72L453.1,74.6,447,78.11a4.64,4.64,0,0,1-4.2,0l-1.72-1A4.66,4.66,0,0,1,439,73.48V34.23a4.65,4.65,0,0,1,2.1-3.64l26.22-15.16a4.64,4.64,0,0,1,4.2,0l1.71,1A4.66,4.66,0,0,1,475.32,20.05Z" style="fill:#9E30F4"></path><path d="M439,73.48a4.65,4.65,0,0,0,2.1,3.64l1.71,1a4.67,4.67,0,0,0,3.84.17c-1,.37-1.74-.18-1.74-1.38V37.64a4.32,4.32,0,0,1,.61-2.07l-5.91-3.41a4.29,4.29,0,0,0-.61,2.07Z" style="opacity:0.2"></path><path d="M475.25,19.46c-.24-.9-1.05-1.18-2-.62L447,34a4.09,4.09,0,0,0-1.48,1.57l-5.91-3.41a4.16,4.16,0,0,1,1.48-1.57l26.22-15.17a4.64,4.64,0,0,1,4.2,0l1.72,1A4.6,4.6,0,0,1,475.25,19.46Z" style="fill:#fff;opacity:0.30000000000000004"></path></g><path d="M468.83,39.24c0-6.09-4-8.71-9-5.86s-9,10.12-9,16.21V51c0,4.69,5.32,10.13,7.76,12.39a1.21,1.21,0,0,0,1.91-.36c2.11-4.32,8.26-17.34,8.26-22.38Zm-9,10c-2.62,1.52-4.75.29-4.75-2.74a10.52,10.52,0,0,1,4.75-8.24c2.63-1.52,4.76-.29,4.76,2.75A10.49,10.49,0,0,1,459.86,49.22Z" style="fill:#fafafa"></path></g></g></svg>